<svg width="48" height="48" viewBox="0 0 48 48" fill="none" xmlns="http://www.w3.org/2000/svg">
<rect width="48" height="48" rx="11" fill="#242938"/>
<mask id="mask0_343_45" style="mask-type:luminance" maskUnits="userSpaceOnUse" x="6" y="8" width="37" height="33">
<path d="M32.9021 8.4668H16.0979C15.5583 8.4668 15.0188 8.77513 14.7104 9.23763L6.38542 23.7293C6.07709 24.1918 6.07709 24.8085 6.38542 25.348L14.7875 39.7626C15.0958 40.2251 15.6354 40.5335 16.175 40.5335H32.9021C33.4417 40.5335 33.9813 40.2251 34.2896 39.7626L42.6146 25.271C42.9229 24.8085 42.9229 24.1918 42.6146 23.6522L34.2896 9.31471C33.9813 8.77513 33.4417 8.4668 32.9021 8.4668Z" fill="white"/>
</mask>
<g mask="url(#mask0_343_45)">
<path d="M14.7104 8.38965L18.025 14.5563L33.2875 8.38965H14.7104Z" fill="#28A8EA"/>
</g>
<mask id="mask1_343_45" style="mask-type:luminance" maskUnits="userSpaceOnUse" x="6" y="8" width="37" height="33">
<path d="M32.9021 8.4668H16.0979C15.5583 8.4668 15.0188 8.77513 14.7104 9.23763L6.38542 23.7293C6.07709 24.1918 6.07709 24.8085 6.38542 25.348L14.7875 39.7626C15.0958 40.2251 15.6354 40.5335 16.175 40.5335H32.9021C33.4417 40.5335 33.9813 40.2251 34.2896 39.7626L42.6146 25.271C42.9229 24.8085 42.9229 24.1918 42.6146 23.6522L34.2896 9.31471C33.9813 8.77513 33.4417 8.4668 32.9021 8.4668Z" fill="white"/>
</mask>
<g mask="url(#mask1_343_45)">
<path d="M14.7104 8.38965L18.025 14.5563L6.15417 23.9605V8.38965H14.7104Z" fill="#0078D4"/>
</g>
<mask id="mask2_343_45" style="mask-type:luminance" maskUnits="userSpaceOnUse" x="6" y="8" width="37" height="33">
<path d="M32.9021 8.4668H16.0979C15.5583 8.4668 15.0188 8.77513 14.7104 9.23763L6.38542 23.7293C6.07709 24.1918 6.07709 24.8085 6.38542 25.348L14.7875 39.7626C15.0958 40.2251 15.6354 40.5335 16.175 40.5335H32.9021C33.4417 40.5335 33.9813 40.2251 34.2896 39.7626L42.6146 25.271C42.9229 24.8085 42.9229 24.1918 42.6146 23.6522L34.2896 9.31471C33.9813 8.77513 33.4417 8.4668 32.9021 8.4668Z" fill="white"/>
</mask>
<g mask="url(#mask2_343_45)">
<path d="M5.3833 24.4999L18.025 14.5562L18.7187 34.5978L5.3833 24.4999Z" fill="#0364B8"/>
</g>
<mask id="mask3_343_45" style="mask-type:luminance" maskUnits="userSpaceOnUse" x="6" y="8" width="37" height="33">
<path d="M32.9021 8.4668H16.0979C15.5583 8.4668 15.0188 8.77513 14.7104 9.23763L6.38542 23.7293C6.07709 24.1918 6.07709 24.8085 6.38542 25.348L14.7875 39.7626C15.0958 40.2251 15.6354 40.5335 16.175 40.5335H32.9021C33.4417 40.5335 33.9813 40.2251 34.2896 39.7626L42.6146 25.271C42.9229 24.8085 42.9229 24.1918 42.6146 23.6522L34.2896 9.31471C33.9813 8.77513 33.4417 8.4668 32.9021 8.4668Z" fill="white"/>
</mask>
<g mask="url(#mask3_343_45)">
<path d="M5.3833 24.5L18.7187 34.5979L14.8646 40.5333L6.15413 40.8417L5.3833 24.5Z" fill="#14447D"/>
</g>
<mask id="mask4_343_45" style="mask-type:luminance" maskUnits="userSpaceOnUse" x="6" y="8" width="37" height="33">
<path d="M32.9021 8.4668H16.0979C15.5583 8.4668 15.0188 8.77513 14.7104 9.23763L6.38542 23.7293C6.07709 24.1918 6.07709 24.8085 6.38542 25.348L14.7875 39.7626C15.0958 40.2251 15.6354 40.5335 16.175 40.5335H32.9021C33.4417 40.5335 33.9813 40.2251 34.2896 39.7626L42.6146 25.271C42.9229 24.8085 42.9229 24.1918 42.6146 23.6522L34.2896 9.31471C33.9813 8.77513 33.4417 8.4668 32.9021 8.4668Z" fill="white"/>
</mask>
<g mask="url(#mask4_343_45)">
<path d="M14.8646 40.5336L18.7188 34.5981L33.9042 40.8419L14.8646 40.5336Z" fill="#0F335E"/>
</g>
<mask id="mask5_343_45" style="mask-type:luminance" maskUnits="userSpaceOnUse" x="6" y="8" width="37" height="33">
<path d="M32.9021 8.4668H16.0979C15.5583 8.4668 15.0188 8.77513 14.7104 9.23763L6.38542 23.7293C6.07709 24.1918 6.07709 24.8085 6.38542 25.348L14.7875 39.7626C15.0958 40.2251 15.6354 40.5335 16.175 40.5335H32.9021C33.4417 40.5335 33.9813 40.2251 34.2896 39.7626L42.6146 25.271C42.9229 24.8085 42.9229 24.1918 42.6146 23.6522L34.2896 9.31471C33.9813 8.77513 33.4417 8.4668 32.9021 8.4668Z" fill="white"/>
</mask>
<g mask="url(#mask5_343_45)">
<path d="M18.7188 34.5979L34.2896 24.5L33.9042 40.8417L18.7188 34.5979Z" fill="#0364B8"/>
</g>
<mask id="mask6_343_45" style="mask-type:luminance" maskUnits="userSpaceOnUse" x="6" y="8" width="37" height="33">
<path d="M32.9021 8.4668H16.0979C15.5583 8.4668 15.0188 8.77513 14.7104 9.23763L6.38542 23.7293C6.07709 24.1918 6.07709 24.8085 6.38542 25.348L14.7875 39.7626C15.0958 40.2251 15.6354 40.5335 16.175 40.5335H32.9021C33.4417 40.5335 33.9813 40.2251 34.2896 39.7626L42.6146 25.271C42.9229 24.8085 42.9229 24.1918 42.6146 23.6522L34.2896 9.31471C33.9813 8.77513 33.4417 8.4668 32.9021 8.4668Z" fill="white"/>
</mask>
<g mask="url(#mask6_343_45)">
<path d="M18.7188 34.5978L18.025 14.5562L34.2896 24.4999L18.7188 34.5978Z" fill="#28A8EA"/>
</g>
<mask id="mask7_343_45" style="mask-type:luminance" maskUnits="userSpaceOnUse" x="6" y="8" width="37" height="33">
<path d="M32.9021 8.4668H16.0979C15.5583 8.4668 15.0188 8.77513 14.7104 9.23763L6.38542 23.7293C6.07709 24.1918 6.07709 24.8085 6.38542 25.348L14.7875 39.7626C15.0958 40.2251 15.6354 40.5335 16.175 40.5335H32.9021C33.4417 40.5335 33.9813 40.2251 34.2896 39.7626L42.6146 25.271C42.9229 24.8085 42.9229 24.1918 42.6146 23.6522L34.2896 9.31471C33.9813 8.77513 33.4417 8.4668 32.9021 8.4668Z" fill="white"/>
</mask>
<g mask="url(#mask7_343_45)">
<path d="M18.025 14.5566L33.9042 8.15869L34.2896 24.5004L18.025 14.5566Z" fill="#50D9FF"/>
</g>
<mask id="mask8_343_45" style="mask-type:luminance" maskUnits="userSpaceOnUse" x="6" y="8" width="37" height="33">
<path d="M32.9021 8.4668H16.0979C15.5583 8.4668 15.0188 8.77513 14.7104 9.23763L6.38542 23.7293C6.07709 24.1918 6.07709 24.8085 6.38542 25.348L14.7875 39.7626C15.0958 40.2251 15.6354 40.5335 16.175 40.5335H32.9021C33.4417 40.5335 33.9813 40.2251 34.2896 39.7626L42.6146 25.271C42.9229 24.8085 42.9229 24.1918 42.6146 23.6522L34.2896 9.31471C33.9813 8.77513 33.4417 8.4668 32.9021 8.4668Z" fill="white"/>
</mask>
<g mask="url(#mask8_343_45)">
<path d="M34.2896 24.5004L33.9042 8.15869L43.0771 8.38994V24.5004H34.2896Z" fill="#28A8EA"/>
</g>
<mask id="mask9_343_45" style="mask-type:luminance" maskUnits="userSpaceOnUse" x="6" y="8" width="37" height="33">
<path d="M32.9021 8.4668H16.0979C15.5583 8.4668 15.0188 8.77513 14.7104 9.23763L6.38542 23.7293C6.07709 24.1918 6.07709 24.8085 6.38542 25.348L14.7875 39.7626C15.0958 40.2251 15.6354 40.5335 16.175 40.5335H32.9021C33.4417 40.5335 33.9813 40.2251 34.2896 39.7626L42.6146 25.271C42.9229 24.8085 42.9229 24.1918 42.6146 23.6522L34.2896 9.31471C33.9813 8.77513 33.4417 8.4668 32.9021 8.4668Z" fill="white"/>
</mask>
<g mask="url(#mask9_343_45)">
<path d="M34.2896 24.5L33.9042 41.3813H42.6146L43.0771 24.5H34.2896Z" fill="#0078D4"/>
</g>
</svg>
